<svg version="1.0" preserveAspectRatio="xMidYMid meet" viewBox="0 11.519999744000001 68.24729891956783 19.889999558" zoomAndPan="magnify" xmlns:xlink="http://www.w3.org/1999/xlink" xmlns="http://www.w3.org/2000/svg" style="max-height: 500px" width="68.24729891956783" height="19.889999558"><defs><g/><clipPath id="85f17bd37a"><path clip-rule="nonzero" d="M 0 0.269531 L 15.75 0.269531 L 15.75 17.519531 L 0 17.519531 Z M 0 0.269531"/></clipPath><clipPath id="88c503492f"><path clip-rule="nonzero" d="M 0.964844 12.878906 L 18.214844 12.878906 L 18.214844 30.128906 L 0.964844 30.128906 Z M 0.964844 12.878906"/></clipPath><clipPath id="e971f1bdf6"><path clip-rule="nonzero" d="M 3 24 L 16 24 L 16 25.96875 L 3 25.96875 Z M 3 24"/></clipPath><clipPath id="f516092caf"><path clip-rule="nonzero" d="M 2.640625 16.96875 L 16.890625 16.96875 L 16.890625 23 L 2.640625 23 Z M 2.640625 16.96875"/></clipPath></defs><rect fill-opacity="1" height="53.999999" y="-4.5" fill="#ffffff" width="90" x="-7.5"/><rect fill-opacity="1" height="53.999999" y="-4.5" fill="#ffffff" width="90" x="-7.5"/><g clip-path="url(#85f17bd37a)"><path fill-rule="nonzero" fill-opacity="1" d="M 8.066406 14.066406 C 8.089844 14.039062 8.113281 14.011719 8.132812 13.984375 C 8.226562 13.878906 8.238281 13.839844 8.148438 13.734375 C 8.0625 13.636719 8.078125 13.550781 8.136719 13.460938 C 8.1875 13.386719 8.246094 13.316406 8.308594 13.257812 C 8.371094 13.203125 8.378906 13.136719 8.378906 13.066406 C 8.429688 13.058594 8.484375 13.050781 8.53125 13.042969 C 8.542969 12.957031 8.554688 12.882812 8.566406 12.773438 C 8.445312 12.863281 8.382812 12.945312 8.386719 13.070312 C 8.324219 13.117188 8.265625 13.164062 8.207031 13.210938 C 8.21875 13.101562 8.296875 12.953125 8.359375 12.886719 C 8.460938 12.777344 8.554688 12.664062 8.648438 12.546875 C 8.730469 12.441406 8.816406 12.335938 8.859375 12.203125 C 8.863281 12.195312 8.867188 12.175781 8.875 12.171875 C 9.054688 12.089844 9.085938 11.902344 9.183594 11.757812 C 9.1875 11.746094 9.203125 11.746094 9.21875 11.738281 C 9.214844 11.777344 9.214844 11.820312 9.207031 11.859375 C 9.195312 11.933594 9.222656 11.980469 9.296875 12.023438 C 9.324219 11.902344 9.292969 11.8125 9.214844 11.738281 C 9.261719 11.753906 9.304688 11.769531 9.359375 11.785156 C 9.398438 11.6875 9.390625 11.558594 9.574219 11.566406 C 9.480469 11.492188 9.429688 11.453125 9.378906 11.410156 C 9.402344 11.261719 9.519531 11.1875 9.601562 11.089844 C 9.523438 10.945312 9.675781 10.871094 9.710938 10.742188 C 9.828125 10.816406 9.980469 10.699219 10.074219 10.859375 C 10.148438 10.71875 10.210938 10.589844 10.28125 10.46875 C 10.300781 10.433594 10.34375 10.410156 10.363281 10.375 C 10.394531 10.316406 10.425781 10.257812 10.4375 10.199219 C 10.445312 10.167969 10.410156 10.125 10.394531 10.089844 C 10.355469 10.113281 10.308594 10.125 10.277344 10.15625 C 10.257812 10.175781 10.261719 10.21875 10.261719 10.257812 C 10.261719 10.433594 10.121094 10.632812 9.949219 10.675781 C 9.90625 10.6875 9.855469 10.664062 9.785156 10.648438 C 9.847656 10.523438 9.898438 10.425781 9.949219 10.324219 C 9.925781 10.316406 9.902344 10.304688 9.882812 10.296875 C 9.9375 10.191406 9.992188 10.085938 10.050781 9.984375 C 10.058594 9.964844 10.085938 9.945312 10.105469 9.941406 C 10.191406 9.929688 10.222656 9.871094 10.25 9.796875 C 10.285156 9.699219 10.339844 9.632812 10.464844 9.652344 C 10.5625 9.664062 10.621094 9.613281 10.628906 9.507812 L 10.625 9.511719 C 10.65625 9.550781 10.691406 9.589844 10.734375 9.636719 C 10.769531 9.644531 10.824219 9.644531 10.871094 9.660156 C 11 9.707031 11.035156 9.679688 11.042969 9.507812 C 10.964844 9.5 10.882812 9.492188 10.804688 9.480469 C 10.75 9.367188 10.875 9.378906 10.914062 9.308594 C 10.910156 9.289062 10.894531 9.257812 10.890625 9.226562 C 10.886719 9.152344 10.890625 9.078125 10.992188 9.070312 C 11.019531 9.066406 11.054688 9.042969 11.066406 9.019531 C 11.160156 8.816406 11.324219 8.644531 11.359375 8.414062 C 11.359375 8.40625 11.355469 8.402344 11.34375 8.386719 C 11.265625 8.429688 11.164062 8.40625 11.117188 8.539062 C 11.089844 8.621094 10.980469 8.675781 10.890625 8.757812 C 10.855469 8.757812 10.796875 8.761719 10.738281 8.765625 C 10.730469 8.746094 10.714844 8.726562 10.71875 8.71875 C 10.792969 8.609375 10.839844 8.476562 10.960938 8.40625 C 11.027344 8.367188 11.015625 8.308594 11.03125 8.253906 C 11.078125 8.105469 11.097656 8.085938 11.253906 8.097656 C 11.207031 7.960938 11.28125 7.859375 11.355469 7.761719 C 11.417969 7.679688 11.472656 7.589844 11.527344 7.503906 C 11.554688 7.460938 11.546875 7.425781 11.492188 7.410156 L 11.5 7.414062 C 11.507812 7.363281 11.503906 7.304688 11.53125 7.261719 C 11.691406 6.988281 11.839844 6.707031 11.988281 6.425781 C 12.019531 6.367188 12.054688 6.3125 12.097656 6.257812 C 12.160156 6.183594 12.226562 6.125 12.210938 6.007812 C 12.210938 5.972656 12.269531 5.925781 12.300781 5.886719 C 12.328125 5.84375 12.371094 5.808594 12.390625 5.761719 C 12.417969 5.691406 12.4375 5.613281 12.445312 5.535156 C 12.460938 5.296875 12.597656 5.101562 12.683594 4.890625 C 12.730469 4.773438 12.765625 4.652344 12.808594 4.53125 C 12.980469 4.03125 13.074219 3.515625 13.128906 2.988281 C 13.164062 2.652344 13.152344 2.328125 13.089844 2 C 13.0625 1.863281 13.007812 1.746094 12.929688 1.636719 C 12.839844 1.511719 12.722656 1.449219 12.578125 1.453125 C 12.390625 1.457031 12.207031 1.464844 12.023438 1.488281 C 11.570312 1.542969 11.125 1.632812 10.695312 1.792969 C 10.480469 1.875 10.246094 1.929688 10.054688 2.054688 C 9.902344 2.148438 9.703125 2.183594 9.609375 2.359375 C 9.480469 2.351562 9.460938 2.488281 9.363281 2.53125 C 9.285156 2.566406 9.226562 2.648438 9.179688 2.742188 C 9.144531 2.742188 9.109375 2.738281 9.074219 2.746094 C 9.003906 2.753906 8.960938 2.800781 8.996094 2.871094 C 9.042969 2.957031 8.988281 3.003906 8.933594 3.0625 C 8.90625 3.054688 8.875 3.039062 8.835938 3.023438 C 8.800781 3.113281 8.761719 3.203125 8.730469 3.289062 C 8.710938 3.339844 8.695312 3.390625 8.679688 3.445312 C 8.652344 3.542969 8.597656 3.601562 8.46875 3.566406 C 8.539062 3.8125 8.425781 3.984375 8.289062 4.144531 C 8.261719 4.175781 8.246094 4.21875 8.230469 4.253906 C 8.171875 4.367188 8.128906 4.476562 8.035156 4.570312 C 7.945312 4.660156 7.90625 4.800781 7.867188 4.921875 C 7.796875 5.132812 7.707031 5.324219 7.597656 5.511719 C 7.4375 5.78125 7.308594 6.066406 7.21875 6.367188 C 7.191406 6.457031 7.164062 6.546875 7.144531 6.640625 C 7.125 6.746094 7.023438 6.75 6.964844 6.804688 C 6.890625 6.867188 6.792969 6.90625 6.691406 6.960938 C 6.660156 6.949219 6.621094 6.929688 6.578125 6.90625 C 6.523438 6.875 6.472656 6.84375 6.414062 6.898438 C 6.398438 6.914062 6.351562 6.921875 6.335938 6.914062 C 6.195312 6.835938 6.089844 6.722656 6.019531 6.582031 C 6.011719 6.5625 6.015625 6.523438 6.027344 6.511719 C 6.160156 6.433594 6.132812 6.28125 6.175781 6.164062 C 6.207031 6.089844 6.230469 6.007812 6.285156 5.9375 C 6.285156 5.980469 6.285156 6.023438 6.285156 6.085938 C 6.308594 6.058594 6.328125 6.046875 6.328125 6.035156 C 6.351562 5.929688 6.410156 5.816406 6.382812 5.726562 C 6.347656 5.617188 6.199219 5.675781 6.105469 5.636719 C 5.863281 5.546875 5.601562 5.503906 5.421875 5.289062 C 5.402344 5.265625 5.386719 5.242188 5.355469 5.203125 C 5.398438 5.160156 5.429688 5.101562 5.476562 5.082031 C 5.664062 5.007812 5.722656 4.851562 5.722656 4.675781 C 5.722656 4.574219 5.683594 4.464844 5.632812 4.371094 C 5.511719 4.144531 5.367188 3.929688 5.242188 3.703125 C 5.113281 3.472656 4.996094 3.234375 4.875 3 C 4.863281 2.980469 4.851562 2.957031 4.847656 2.933594 C 4.832031 2.871094 4.832031 2.796875 4.800781 2.742188 C 4.777344 2.691406 4.714844 2.664062 4.675781 2.617188 C 4.585938 2.519531 4.503906 2.414062 4.410156 2.324219 C 4.316406 2.242188 4.214844 2.164062 4.105469 2.101562 C 3.957031 2.015625 3.800781 2.054688 3.652344 2.117188 C 3.632812 2.125 3.605469 2.144531 3.601562 2.164062 C 3.582031 2.328125 3.429688 2.355469 3.320312 2.414062 C 3.214844 2.472656 3.132812 2.542969 3.082031 2.644531 C 2.886719 3.015625 2.6875 3.390625 2.542969 3.785156 C 2.480469 3.960938 2.4375 4.144531 2.40625 4.328125 C 2.34375 4.65625 2.265625 4.984375 2.261719 5.328125 C 2.261719 5.617188 2.21875 5.902344 2.226562 6.191406 C 2.230469 6.550781 2.261719 6.914062 2.289062 7.273438 C 2.308594 7.527344 2.332031 7.78125 2.371094 8.027344 C 2.398438 8.195312 2.464844 8.351562 2.511719 8.511719 C 2.539062 8.609375 2.554688 8.710938 2.554688 8.8125 C 2.390625 8.527344 2.378906 8.183594 2.222656 7.894531 C 2.207031 8.117188 2.378906 8.308594 2.3125 8.539062 C 2.402344 8.605469 2.4375 8.6875 2.453125 8.800781 C 2.46875 8.917969 2.449219 9.058594 2.566406 9.152344 C 2.582031 9.164062 2.585938 9.195312 2.589844 9.21875 C 2.605469 9.386719 2.691406 9.523438 2.75 9.675781 C 2.820312 9.855469 2.9375 10.019531 2.957031 10.222656 C 2.964844 10.292969 3.019531 10.363281 3.066406 10.425781 C 3.164062 10.546875 3.21875 10.710938 3.390625 10.78125 C 3.308594 10.941406 3.390625 11.042969 3.496094 11.15625 C 3.558594 11.226562 3.582031 11.347656 3.601562 11.445312 C 3.613281 11.507812 3.589844 11.578125 3.585938 11.65625 C 3.734375 11.65625 3.863281 11.691406 3.953125 11.832031 C 4.03125 11.957031 4.113281 12.066406 4.109375 12.222656 C 4.109375 12.292969 4.117188 12.371094 4.210938 12.394531 C 4.238281 12.398438 4.25 12.449219 4.273438 12.46875 C 4.316406 12.503906 4.339844 12.5625 4.425781 12.53125 C 4.46875 12.515625 4.542969 12.570312 4.613281 12.597656 C 4.554688 12.707031 4.621094 12.769531 4.683594 12.847656 C 4.738281 12.917969 4.800781 12.960938 4.878906 12.992188 C 4.960938 13.019531 4.976562 13.136719 5.089844 13.132812 C 5.128906 13.132812 5.175781 13.238281 5.203125 13.304688 C 5.214844 13.328125 5.191406 13.371094 5.179688 13.433594 C 5.113281 13.351562 5.070312 13.296875 5.050781 13.273438 C 4.960938 13.265625 4.902344 13.261719 4.839844 13.253906 C 4.792969 13.332031 4.941406 13.398438 4.863281 13.480469 C 4.726562 13.433594 4.6875 13.402344 4.730469 13.324219 C 4.792969 13.207031 4.75 13.132812 4.667969 13.0625 C 4.65625 13.050781 4.648438 13.03125 4.640625 13.015625 C 4.582031 13.03125 4.53125 13.046875 4.476562 13.0625 C 4.535156 13.152344 4.59375 13.234375 4.648438 13.320312 C 4.523438 13.277344 4.398438 13.238281 4.335938 13.121094 C 4.324219 13.101562 4.300781 13.074219 4.285156 13.074219 C 4.152344 13.085938 4.09375 12.957031 3.984375 12.925781 C 3.949219 12.917969 3.914062 12.875 3.902344 12.839844 C 3.851562 12.699219 3.714844 12.671875 3.589844 12.605469 C 3.601562 12.65625 3.597656 12.730469 3.632812 12.761719 C 3.738281 12.855469 3.851562 12.949219 3.976562 13.015625 C 4.070312 13.066406 4.097656 13.121094 4.066406 13.214844 L 4.070312 13.207031 C 3.980469 13.175781 3.894531 13.171875 3.808594 13.207031 L 3.816406 13.210938 C 3.796875 13.152344 3.773438 13.101562 3.683594 13.09375 C 3.691406 13.183594 3.699219 13.261719 3.707031 13.339844 L 3.707031 13.332031 C 3.667969 13.339844 3.628906 13.347656 3.566406 13.359375 C 3.570312 13.191406 3.6875 13.039062 3.582031 12.890625 C 3.5625 12.890625 3.546875 12.882812 3.539062 12.890625 C 3.496094 12.921875 3.457031 12.980469 3.402344 12.9375 C 3.367188 12.910156 3.335938 12.839844 3.347656 12.800781 C 3.386719 12.65625 3.265625 12.589844 3.203125 12.488281 C 3.195312 12.511719 3.179688 12.539062 3.183594 12.5625 C 3.195312 12.605469 3.222656 12.636719 3.179688 12.691406 C 3.125 12.765625 3.148438 12.800781 3.242188 12.863281 C 3.273438 12.886719 3.289062 12.929688 3.316406 12.964844 C 3.304688 12.976562 3.296875 12.992188 3.289062 13.003906 C 3.242188 12.992188 3.191406 12.988281 3.152344 12.964844 C 3.085938 12.925781 3.023438 12.875 2.933594 12.808594 C 2.949219 12.714844 2.964844 12.578125 2.988281 12.425781 C 3.027344 12.460938 3.0625 12.492188 3.101562 12.527344 C 3.113281 12.511719 3.128906 12.5 3.128906 12.488281 C 3.125 12.367188 3.089844 12.3125 3 12.292969 C 2.984375 12.289062 2.96875 12.285156 2.949219 12.28125 C 2.945312 12.214844 2.941406 12.148438 2.9375 12.082031 C 2.816406 12.082031 2.800781 12.152344 2.808594 12.238281 C 2.8125 12.296875 2.8125 12.351562 2.726562 12.339844 C 2.710938 12.300781 2.726562 12.230469 2.609375 12.246094 C 2.664062 12.289062 2.699219 12.3125 2.734375 12.335938 C 2.71875 12.359375 2.699219 12.386719 2.675781 12.425781 C 2.566406 12.316406 2.4375 12.234375 2.386719 12.070312 C 2.367188 12.007812 2.289062 11.96875 2.238281 11.914062 C 2.183594 11.851562 2.109375 11.816406 2.097656 11.707031 C 2.09375 11.648438 2.007812 11.585938 1.949219 11.539062 C 1.875 11.476562 1.84375 11.410156 1.890625 11.3125 C 1.703125 11.28125 1.84375 11.066406 1.707031 11.007812 C 1.6875 11.023438 1.667969 11.039062 1.644531 11.058594 C 1.632812 11.050781 1.617188 11.046875 1.617188 11.035156 C 1.601562 10.9375 1.457031 10.847656 1.589844 10.730469 C 1.589844 10.730469 1.570312 10.6875 1.550781 10.679688 C 1.535156 10.675781 1.5 10.6875 1.492188 10.703125 C 1.476562 10.726562 1.484375 10.761719 1.476562 10.789062 C 1.464844 10.824219 1.445312 10.859375 1.417969 10.921875 C 1.394531 10.800781 1.371094 10.714844 1.363281 10.628906 C 1.359375 10.578125 1.351562 10.511719 1.378906 10.472656 C 1.445312 10.386719 1.410156 10.320312 1.363281 10.242188 C 1.335938 10.265625 1.316406 10.285156 1.285156 10.3125 C 1.246094 10.226562 1.199219 10.148438 1.179688 10.0625 C 1.160156 9.980469 1.175781 9.890625 1.175781 9.785156 C 1.144531 9.808594 1.121094 9.828125 1.097656 9.847656 C 0.914062 9.742188 0.867188 9.585938 0.957031 9.402344 C 1.007812 9.292969 1.007812 9.269531 0.9375 9.027344 C 0.914062 9.125 0.898438 9.199219 0.878906 9.277344 C 0.742188 9.199219 0.691406 9.035156 0.757812 8.917969 C 0.78125 8.882812 0.792969 8.863281 0.757812 8.832031 C 0.746094 8.824219 0.75 8.777344 0.761719 8.769531 C 0.878906 8.679688 0.832031 8.566406 0.800781 8.449219 C 0.789062 8.503906 0.773438 8.558594 0.757812 8.628906 C 0.660156 8.554688 0.6875 8.460938 0.707031 8.398438 C 0.742188 8.28125 0.738281 8.171875 0.699219 8.046875 C 0.542969 8.160156 0.707031 8.351562 0.566406 8.492188 C 0.542969 8.339844 0.515625 8.214844 0.503906 8.085938 C 0.503906 8.058594 0.558594 8.007812 0.597656 7.996094 C 0.699219 7.964844 0.703125 7.894531 0.691406 7.808594 C 0.675781 7.714844 0.660156 7.617188 0.640625 7.507812 C 0.609375 7.550781 0.582031 7.585938 0.554688 7.617188 C 0.652344 7.804688 0.652344 7.820312 0.523438 7.910156 C 0.425781 7.71875 0.460938 7.515625 0.449219 7.320312 C 0.414062 7.3125 0.386719 7.308594 0.363281 7.308594 C 0.363281 7.28125 0.359375 7.269531 0.363281 7.257812 C 0.4375 7.113281 0.4375 7.105469 0.351562 6.921875 C 0.339844 6.894531 0.347656 6.847656 0.359375 6.816406 C 0.386719 6.757812 0.425781 6.707031 0.46875 6.640625 C 0.441406 6.628906 0.410156 6.617188 0.371094 6.601562 C 0.378906 6.558594 0.386719 6.515625 0.394531 6.480469 C 0.488281 6.449219 0.523438 6.5 0.558594 6.6875 C 0.597656 6.574219 0.597656 6.574219 0.5625 6.355469 C 0.460938 6.375 0.339844 6.367188 0.320312 6.519531 C 0.292969 6.410156 0.324219 6.324219 0.40625 6.25 C 0.464844 6.199219 0.460938 6.195312 0.464844 6.085938 C 0.421875 6.109375 0.378906 6.128906 0.328125 6.152344 C 0.3125 6.109375 0.304688 6.070312 0.292969 6.035156 C 0.28125 6.042969 0.269531 6.046875 0.269531 6.050781 C 0.253906 6.214844 0.253906 6.375 0.222656 6.535156 C 0.195312 6.707031 0.246094 6.867188 0.253906 7.035156 C 0.257812 7.074219 0.253906 7.117188 0.261719 7.160156 C 0.285156 7.308594 0.214844 7.386719 0.0820312 7.441406 C 0.03125 7.347656 0.230469 7.25 0.0664062 7.175781 C 0.105469 7.09375 0.140625 7.015625 0.179688 6.9375 C 0.117188 6.84375 0.0976562 6.742188 0.136719 6.632812 C 0.144531 6.609375 0.152344 6.582031 0.148438 6.5625 C 0.0820312 6.289062 0.164062 6.023438 0.167969 5.753906 C 0.167969 5.714844 0.167969 5.65625 0.144531 5.632812 C 0 5.503906 0.0507812 5.34375 0.0742188 5.199219 C 0.121094 4.902344 0.195312 4.609375 0.253906 4.316406 C 0.265625 4.246094 0.28125 4.1875 0.34375 4.144531 C 0.375 4.125 0.398438 4.082031 0.410156 4.046875 C 0.441406 3.964844 0.464844 3.886719 0.480469 3.800781 C 0.492188 3.746094 0.484375 3.691406 0.484375 3.621094 C 0.445312 3.644531 0.429688 3.65625 0.410156 3.671875 C 0.40625 3.65625 0.394531 3.644531 0.394531 3.636719 C 0.535156 3.292969 0.714844 2.96875 0.945312 2.671875 C 1.058594 2.527344 1.152344 2.363281 1.277344 2.222656 C 1.398438 2.089844 1.542969 1.980469 1.671875 1.855469 C 1.824219 1.714844 2.015625 1.675781 2.210938 1.628906 C 2.339844 1.601562 2.472656 1.558594 2.601562 1.511719 C 3.03125 1.359375 3.46875 1.363281 3.914062 1.445312 C 3.921875 1.445312 3.929688 1.460938 3.953125 1.488281 C 3.910156 1.519531 3.863281 1.546875 3.816406 1.582031 C 3.847656 1.617188 3.890625 1.640625 3.910156 1.683594 C 3.941406 1.757812 3.992188 1.789062 4.074219 1.800781 C 4.132812 1.8125 4.179688 1.851562 4.234375 1.882812 C 4.308594 1.921875 4.382812 1.957031 4.457031 1.996094 C 4.503906 2.023438 4.550781 2.050781 4.589844 2.085938 C 4.8125 2.269531 5.027344 2.457031 5.246094 2.648438 C 5.261719 2.660156 5.277344 2.671875 5.292969 2.675781 C 5.503906 2.757812 5.640625 2.921875 5.765625 3.097656 C 5.863281 3.234375 5.894531 3.238281 6.019531 3.164062 C 6.125 3.246094 6.226562 3.324219 6.328125 3.40625 C 6.394531 3.378906 6.339844 3.25 6.460938 3.28125 C 6.46875 3.328125 6.480469 3.386719 6.496094 3.457031 C 6.53125 3.4375 6.558594 3.425781 6.582031 3.414062 C 6.601562 3.402344 6.617188 3.386719 6.632812 3.378906 C 6.71875 3.421875 6.726562 3.488281 6.722656 3.566406 C 6.71875 3.679688 6.710938 3.792969 6.707031 3.910156 C 6.703125 3.945312 6.695312 3.988281 6.707031 4.015625 C 6.753906 4.105469 6.785156 4.195312 6.71875 4.300781 C 6.734375 4.304688 6.746094 4.308594 6.757812 4.3125 C 6.8125 4.246094 6.878906 4.183594 6.921875 4.109375 C 7.078125 3.839844 7.226562 3.5625 7.382812 3.289062 C 7.492188 3.101562 7.617188 2.921875 7.785156 2.761719 C 7.785156 2.871094 7.785156 2.980469 7.785156 3.09375 C 7.828125 3.136719 7.871094 3.183594 7.914062 3.230469 C 7.984375 3.191406 7.996094 3.132812 7.949219 3.078125 C 7.824219 2.933594 7.886719 2.765625 7.878906 2.609375 C 7.878906 2.558594 7.929688 2.503906 7.964844 2.445312 C 8.023438 2.46875 8.070312 2.488281 8.105469 2.5 C 8.171875 2.414062 8.242188 2.34375 8.296875 2.261719 C 8.335938 2.195312 8.359375 2.117188 8.382812 2.046875 C 8.410156 1.941406 8.40625 1.9375 8.542969 1.859375 C 8.550781 1.902344 8.558594 1.941406 8.566406 1.976562 C 8.4375 2.042969 8.417969 2.171875 8.433594 2.285156 C 8.449219 2.410156 8.414062 2.496094 8.347656 2.585938 C 8.324219 2.625 8.3125 2.671875 8.292969 2.714844 C 8.34375 2.695312 8.355469 2.660156 8.375 2.632812 C 8.488281 2.476562 8.566406 2.316406 8.53125 2.113281 C 8.523438 2.070312 8.550781 2.019531 8.5625 1.972656 C 8.597656 1.96875 8.632812 1.964844 8.6875 1.960938 C 8.660156 1.898438 8.636719 1.847656 8.609375 1.777344 C 8.648438 1.730469 8.691406 1.675781 8.75 1.601562 C 8.777344 1.65625 8.796875 1.691406 8.832031 1.75 C 8.871094 1.621094 8.867188 1.496094 8.980469 1.429688 C 9.027344 1.40625 9.066406 1.367188 9.109375 1.335938 C 9.234375 1.25 9.359375 1.167969 9.476562 1.082031 C 9.605469 0.988281 9.746094 0.929688 9.898438 0.890625 C 9.945312 0.878906 9.984375 0.828125 10.035156 0.808594 C 10.261719 0.703125 10.488281 0.59375 10.738281 0.550781 C 10.820312 0.53125 10.894531 0.484375 10.976562 0.46875 C 11.417969 0.378906 11.863281 0.3125 12.316406 0.332031 C 12.675781 0.347656 13.039062 0.347656 13.398438 0.359375 C 13.769531 0.371094 14.113281 0.453125 14.40625 0.703125 C 14.46875 0.753906 14.523438 0.851562 14.632812 0.820312 C 14.636719 0.820312 14.648438 0.820312 14.652344 0.824219 C 14.761719 0.945312 14.886719 1.058594 14.976562 1.191406 C 15.054688 1.308594 15.09375 1.449219 15.152344 1.597656 C 15.179688 1.554688 15.191406 1.527344 15.207031 1.503906 C 15.21875 1.511719 15.226562 1.519531 15.230469 1.527344 C 15.308594 1.769531 15.386719 2.007812 15.464844 2.25 C 15.476562 2.289062 15.480469 2.332031 15.480469 2.375 C 15.480469 2.730469 15.5 3.085938 15.472656 3.441406 C 15.453125 3.765625 15.378906 4.082031 15.335938 4.402344 C 15.308594 4.585938 15.296875 4.773438 15.265625 4.957031 C 15.234375 5.144531 15.1875 5.328125 15.148438 5.515625 C 15.144531 5.535156 15.136719 5.550781 15.136719 5.570312 C 15.136719 5.832031 15.046875 6.078125 14.96875 6.324219 C 14.96875 6.335938 14.96875 6.351562 14.960938 6.359375 C 14.761719 6.742188 14.703125 7.1875 14.441406 7.542969 C 14.378906 7.625 14.347656 7.722656 14.257812 7.796875 C 14.199219 7.84375 14.183594 7.945312 14.144531 8.019531 C 14.113281 8.082031 14.066406 8.136719 14.03125 8.195312 C 13.957031 8.3125 13.882812 8.429688 13.804688 8.542969 C 13.640625 8.777344 13.472656 9.007812 13.304688 9.242188 C 13.277344 9.28125 13.257812 9.324219 13.234375 9.367188 C 13.214844 9.398438 13.203125 9.433594 13.183594 9.460938 C 13.050781 9.609375 12.917969 9.753906 12.785156 9.902344 C 12.757812 9.929688 12.734375 9.964844 12.707031 9.996094 C 12.660156 10.042969 12.617188 10.089844 12.574219 10.132812 C 12.550781 10.152344 12.511719 10.167969 12.507812 10.1875 C 12.480469 10.347656 12.339844 10.414062 12.25 10.523438 C 12.0625 10.742188 11.875 10.957031 11.6875 11.175781 C 11.683594 11.183594 11.675781 11.195312 11.667969 11.203125 C 11.355469 11.441406 11.253906 11.824219 11.015625 12.113281 C 10.898438 12.253906 10.851562 12.445312 10.703125 12.566406 C 10.667969 12.597656 10.671875 12.675781 10.652344 12.734375 C 10.617188 12.859375 10.570312 12.972656 10.425781 13.023438 C 10.410156 13.179688 10.347656 13.300781 10.167969 13.34375 C 10.125 13.351562 10.089844 13.425781 10.058594 13.476562 C 10.054688 13.484375 10.089844 13.519531 10.113281 13.546875 C 9.886719 13.675781 9.714844 13.867188 9.546875 14.0625 C 9.558594 14.015625 9.574219 13.96875 9.589844 13.921875 C 9.578125 13.914062 9.566406 13.90625 9.554688 13.898438 C 9.527344 13.929688 9.484375 13.960938 9.472656 14.003906 C 9.460938 14.039062 9.480469 14.085938 9.542969 14.070312 C 9.488281 14.175781 9.417969 14.246094 9.273438 14.1875 C 9.273438 14.316406 9.132812 14.40625 9.25 14.523438 C 9.1875 14.632812 9.132812 14.734375 9.078125 14.835938 C 9.070312 14.835938 9.0625 14.835938 9.054688 14.832031 C 9.054688 14.792969 9.058594 14.75 9.0625 14.703125 C 8.902344 14.742188 8.917969 14.882812 8.890625 14.984375 C 8.867188 15.0625 8.859375 15.128906 8.765625 15.160156 C 8.726562 15.175781 8.707031 15.253906 8.6875 15.308594 C 8.664062 15.375 8.648438 15.449219 8.625 15.515625 C 8.535156 15.734375 8.464844 15.960938 8.445312 16.203125 C 8.441406 16.296875 8.382812 16.398438 8.320312 16.472656 C 8.222656 16.585938 8.210938 16.578125 8.308594 16.664062 C 8.308594 16.875 8.308594 17.078125 8.308594 17.289062 C 8.109375 17.308594 8.039062 17.132812 7.898438 17.054688 C 7.917969 17.148438 7.933594 17.234375 7.953125 17.324219 C 7.847656 17.285156 7.722656 17.167969 7.6875 17.101562 C 7.683594 17.085938 7.675781 17.070312 7.664062 17.0625 C 7.597656 17.03125 7.523438 17.015625 7.46875 16.96875 C 7.414062 16.925781 7.378906 16.859375 7.328125 16.796875 C 7.363281 16.683594 7.390625 16.550781 7.445312 16.4375 C 7.5 16.320312 7.496094 16.210938 7.46875 16.089844 C 7.460938 16.066406 7.445312 16.035156 7.453125 16.023438 C 7.542969 15.894531 7.496094 15.714844 7.621094 15.605469 C 7.726562 15.507812 7.757812 15.390625 7.738281 15.246094 C 7.726562 15.179688 7.75 15.105469 7.773438 15.039062 C 7.792969 14.976562 7.832031 14.921875 7.863281 14.855469 C 7.738281 14.714844 7.867188 14.585938 7.898438 14.460938 C 7.929688 14.335938 8 14.21875 8.050781 14.097656 C 8.050781 14.082031 8.058594 14.074219 8.066406 14.066406 Z M 7.597656 3.808594 C 7.550781 3.828125 7.496094 3.84375 7.453125 3.871094 C 7.394531 3.914062 7.40625 3.953125 7.484375 4.007812 C 7.519531 3.941406 7.558594 3.871094 7.59375 3.800781 C 7.613281 3.765625 7.640625 3.734375 7.648438 3.695312 C 7.660156 3.636719 7.625 3.628906 7.578125 3.652344 C 7.574219 3.582031 7.640625 3.523438 7.589844 3.449219 C 7.394531 3.5625 7.378906 3.613281 7.476562 3.761719 C 7.511719 3.722656 7.546875 3.683594 7.582031 3.644531 C 7.589844 3.699219 7.59375 3.753906 7.597656 3.808594 Z M 3.457031 12.441406 C 3.460938 12.484375 3.441406 12.546875 3.519531 12.542969 C 3.527344 12.542969 3.542969 12.53125 3.542969 12.523438 C 3.550781 12.453125 3.496094 12.453125 3.449219 12.449219 C 3.449219 12.410156 3.449219 12.371094 3.449219 12.328125 C 3.382812 12.328125 3.324219 12.328125 3.246094 12.328125 C 3.269531 12.367188 3.28125 12.40625 3.300781 12.414062 C 3.347656 12.429688 3.402344 12.433594 3.457031 12.441406 Z M 2.457031 11.847656 C 2.46875 11.800781 2.492188 11.757812 2.492188 11.714844 C 2.496094 11.59375 2.488281 11.472656 2.484375 11.351562 C 2.457031 11.320312 2.425781 11.285156 2.390625 11.238281 C 2.28125 11.332031 2.390625 11.472656 2.3125 11.582031 C 2.484375 11.617188 2.425781 11.753906 2.457031 11.847656 C 2.316406 11.792969 2.277344 11.65625 2.214844 11.539062 C 2.195312 11.492188 2.179688 11.445312 2.160156 11.394531 C 2.0625 11.4375 2.09375 11.492188 2.117188 11.539062 C 2.175781 11.640625 2.242188 11.742188 2.308594 11.835938 C 2.351562 11.890625 2.40625 11.878906 2.457031 11.847656 Z M 8.761719 2.363281 C 8.742188 2.367188 8.726562 2.371094 8.707031 2.371094 C 8.785156 2.640625 8.613281 2.835938 8.5 3.074219 C 8.699219 3.007812 8.679688 2.757812 8.859375 2.726562 C 8.824219 2.59375 8.792969 2.480469 8.761719 2.363281 Z M 11.285156 8.960938 C 11.347656 8.953125 11.414062 8.9375 11.484375 8.933594 C 11.570312 8.929688 11.597656 8.886719 11.613281 8.8125 C 11.632812 8.722656 11.585938 8.695312 11.550781 8.691406 C 11.449219 8.792969 11.367188 8.878906 11.285156 8.960938 Z M 3.160156 12.105469 C 3.179688 12.160156 3.191406 12.199219 3.203125 12.238281 C 3.214844 12.238281 3.222656 12.234375 3.234375 12.230469 C 3.234375 12.160156 3.234375 12.09375 3.234375 12.046875 C 3.144531 11.996094 3.066406 11.953125 2.96875 11.898438 C 2.980469 11.988281 2.988281 12.0625 3 12.144531 C 3.058594 12.132812 3.105469 12.121094 3.160156 12.105469 Z M 9.078125 1.882812 C 9.046875 2.007812 9.023438 2.113281 8.992188 2.230469 C 9.183594 2.121094 9.203125 2.039062 9.078125 1.882812 Z M 1.492188 10.097656 C 1.503906 10.179688 1.40625 10.265625 1.519531 10.320312 C 1.519531 10.203125 1.519531 10.089844 1.519531 9.949219 C 1.449219 10 1.367188 9.996094 1.363281 10.097656 C 1.40625 10.097656 1.4375 10.097656 1.492188 10.097656 Z M 8.863281 1.890625 C 8.796875 1.972656 8.753906 2.035156 8.699219 2.101562 C 8.867188 2.121094 8.867188 2.121094 8.863281 1.890625 Z M 8.367188 2.964844 C 8.316406 2.9375 8.285156 2.902344 8.269531 2.90625 C 8.238281 2.921875 8.21875 2.960938 8.191406 2.984375 C 8.21875 3.007812 8.246094 3.046875 8.269531 3.046875 C 8.296875 3.039062 8.324219 3.003906 8.367188 2.964844 Z M 0.25 5.210938 C 0.230469 5.203125 0.214844 5.195312 0.195312 5.1875 C 0.0976562 5.257812 0.125 5.359375 0.148438 5.460938 C 0.183594 5.375 0.214844 5.292969 0.25 5.210938 Z M 6.710938 5.226562 C 6.601562 5.390625 6.601562 5.390625 6.699219 5.488281 C 6.703125 5.402344 6.707031 5.332031 6.710938 5.226562 Z M 8.082031 3.191406 C 7.960938 3.328125 7.960938 3.328125 8.058594 3.417969 C 8.066406 3.335938 8.074219 3.265625 8.082031 3.191406 Z M 8.054688 2.703125 C 7.992188 2.816406 7.980469 2.855469 8.027344 2.886719 C 8.070312 2.921875 8.117188 2.917969 8.136719 2.867188 C 8.105469 2.804688 8.078125 2.753906 8.054688 2.703125 Z M 10.207031 10.074219 C 10.15625 10.109375 10.132812 10.125 10.113281 10.140625 C 10.085938 10.160156 10.058594 10.179688 10.03125 10.199219 C 10.140625 10.292969 10.164062 10.277344 10.207031 10.074219 Z M 2.523438 12.105469 C 2.660156 12.019531 2.660156 12.019531 2.667969 11.898438 C 2.664062 11.996094 2.472656 11.945312 2.523438 12.105469 Z M 8.171875 14.148438 C 8.019531 14.3125 8.015625 14.355469 8.125 14.398438 C 8.136719 14.328125 8.152344 14.253906 8.171875 14.148438 Z M 4.042969 12.328125 C 4.03125 12.425781 4.019531 12.523438 4.003906 12.621094 C 4.132812 12.546875 4.085938 12.4375 4.042969 12.328125 Z M 9.542969 1.460938 C 9.570312 1.359375 9.511719 1.320312 9.472656 1.253906 C 9.417969 1.351562 9.445312 1.40625 9.542969 1.460938 Z M 6.804688 5.199219 C 6.820312 5.199219 6.835938 5.199219 6.851562 5.199219 C 6.851562 5.121094 6.851562 5.042969 6.851562 4.964844 C 6.796875 5.039062 6.757812 5.113281 6.804688 5.199219 Z M 0.566406 7.21875 C 0.515625 7.285156 0.507812 7.335938 0.5625 7.402344 C 0.644531 7.335938 0.636719 7.285156 0.566406 7.21875 Z M 1.28125 8.472656 C 1.203125 8.5625 1.203125 8.5625 1.25 8.730469 C 1.261719 8.621094 1.273438 8.546875 1.28125 8.472656 Z M 8.117188 3.898438 C 8.214844 3.839844 8.214844 3.839844 8.183594 3.730469 C 8.15625 3.796875 8.136719 3.847656 8.117188 3.898438 Z M 0.582031 7.113281 C 0.582031 7.035156 0.582031 6.976562 0.582031 6.90625 C 0.464844 6.988281 0.464844 6.988281 0.582031 7.113281 Z M 8.417969 2.730469 C 8.5625 2.703125 8.5625 2.703125 8.515625 2.589844 C 8.484375 2.636719 8.453125 2.675781 8.417969 2.730469 Z M 2.082031 10.601562 C 2.195312 10.539062 2.207031 10.480469 2.152344 10.367188 C 2.125 10.457031 2.109375 10.515625 2.082031 10.601562 Z M 7.289062 4.824219 C 7.195312 4.84375 7.183594 4.902344 7.214844 4.976562 C 7.238281 4.925781 7.261719 4.875 7.289062 4.824219 Z M 4.109375 12.894531 C 4.121094 12.90625 4.136719 12.914062 4.148438 12.925781 C 4.210938 12.90625 4.230469 12.863281 4.210938 12.757812 C 4.164062 12.824219 4.136719 12.859375 4.109375 12.894531 Z M 10.09375 10.308594 C 10.054688 10.351562 10.035156 10.371094 10.019531 10.394531 C 10.015625 10.40625 10.019531 10.425781 10.019531 10.449219 C 10.097656 10.445312 10.121094 10.414062 10.09375 10.308594 Z M 8.085938 16.644531 C 8.097656 16.636719 8.113281 16.628906 8.125 16.625 C 8.121094 16.5625 8.117188 16.5 8.023438 16.476562 C 8.046875 16.53125 8.066406 16.585938 8.085938 16.644531 Z M 11.667969 7.851562 C 11.6875 7.8125 11.707031 7.789062 11.707031 7.761719 C 11.707031 7.75 11.675781 7.738281 11.660156 7.726562 C 11.648438 7.75 11.625 7.769531 11.621094 7.792969 C 11.617188 7.804688 11.644531 7.824219 11.667969 7.851562 Z M 8.402344 13.464844 C 8.320312 13.535156 8.320312 13.535156 8.34375 13.632812 C 8.367188 13.574219 8.378906 13.53125 8.402344 13.464844 Z M 7.121094 6.214844 C 7.136719 6.21875 7.152344 6.222656 7.167969 6.230469 C 7.179688 6.183594 7.191406 6.136719 7.203125 6.089844 C 7.191406 6.085938 7.179688 6.085938 7.167969 6.082031 C 7.152344 6.125 7.136719 6.167969 7.121094 6.214844 Z M 2.1875 7.371094 C 2.199219 7.371094 2.210938 7.371094 2.222656 7.371094 C 2.21875 7.304688 2.214844 7.238281 2.210938 7.171875 C 2.207031 7.171875 2.203125 7.171875 2.199219 7.171875 C 2.195312 7.238281 2.191406 7.304688 2.1875 7.371094 Z M 10.5625 9.828125 C 10.574219 9.839844 10.585938 9.855469 10.601562 9.871094 C 10.632812 9.839844 10.667969 9.808594 10.699219 9.777344 C 10.691406 9.769531 10.683594 9.757812 10.675781 9.75 C 10.636719 9.773438 10.601562 9.800781 10.5625 9.828125 Z M 9.753906 11.347656 C 9.742188 11.339844 9.730469 11.328125 9.71875 11.324219 C 9.703125 11.359375 9.6875 11.390625 9.667969 11.425781 C 9.679688 11.433594 9.6875 11.4375 9.695312 11.441406 C 9.714844 11.410156 9.734375 11.378906 9.753906 11.347656 Z M 9.171875 2.355469 C 9.179688 2.359375 9.1875 2.363281 9.199219 2.367188 C 9.210938 2.347656 9.230469 2.332031 9.234375 2.3125 C 9.238281 2.289062 9.230469 2.265625 9.226562 2.242188 C 9.21875 2.242188 9.207031 2.242188 9.199219 2.242188 C 9.1875 2.277344 9.179688 2.316406 9.171875 2.355469 Z M 1.875 11.058594 C 1.882812 11.054688 1.890625 11.050781 1.902344 11.046875 C 1.882812 11 1.859375 10.957031 1.839844 10.914062 C 1.828125 10.917969 1.816406 10.925781 1.804688 10.929688 C 1.828125 10.972656 1.851562 11.015625 1.875 11.058594 Z M 2.238281 7.6875 C 2.234375 7.675781 2.226562 7.660156 2.21875 7.644531 C 2.191406 7.65625 2.160156 7.664062 2.132812 7.675781 C 2.140625 7.691406 2.152344 7.71875 2.15625 7.71875 C 2.183594 7.710938 2.210938 7.699219 2.238281 7.6875 Z M 11.417969 9.070312 C 11.335938 9.128906 11.335938 9.128906 11.394531 9.195312 C 11.402344 9.152344 11.40625 9.117188 11.417969 9.070312 Z M 1.699219 10.5625 C 1.683594 10.5625 1.667969 10.5625 1.648438 10.566406 C 1.65625 10.597656 1.664062 10.628906 1.667969 10.660156 C 1.679688 10.660156 1.691406 10.65625 1.703125 10.65625 C 1.703125 10.625 1.699219 10.589844 1.699219 10.5625 Z M 11.863281 7.417969 C 11.84375 7.394531 11.828125 7.382812 11.816406 7.367188 C 11.804688 7.375 11.78125 7.390625 11.785156 7.398438 C 11.789062 7.417969 11.804688 7.433594 11.816406 7.449219 C 11.828125 7.441406 11.839844 7.433594 11.863281 7.417969 Z M 10.753906 10.277344 C 10.738281 10.277344 10.722656 10.277344 10.710938 10.277344 C 10.714844 10.308594 10.71875 10.339844 10.726562 10.371094 C 10.734375 10.367188 10.742188 10.367188 10.753906 10.367188 C 10.753906 10.335938 10.753906 10.304688 10.753906 10.277344 Z M 8.679688 12.597656 C 8.695312 12.617188 8.703125 12.644531 8.710938 12.640625 C 8.730469 12.636719 8.75 12.625 8.765625 12.617188 C 8.757812 12.597656 8.75 12.582031 8.738281 12.566406 C 8.722656 12.574219 8.703125 12.585938 8.679688 12.597656 Z M 7.367188 3.8125 C 7.359375 3.8125 7.347656 3.808594 7.335938 3.804688 C 7.328125 3.824219 7.3125 3.84375 7.3125 3.863281 C 7.308594 3.886719 7.316406 3.90625 7.320312 3.929688 C 7.328125 3.929688 7.339844 3.925781 7.347656 3.925781 C 7.355469 3.890625 7.359375 3.851562 7.367188 3.8125 Z M 1.152344 8.949219 C 1.113281 8.917969 1.101562 8.910156 1.089844 8.898438 C 1.085938 8.910156 1.070312 8.917969 1.070312 8.929688 C 1.074219 8.941406 1.082031 8.964844 1.09375 8.96875 C 1.105469 8.972656 1.125 8.957031 1.152344 8.949219 Z M 1.496094 8.726562 C 1.476562 8.726562 1.464844 8.730469 1.449219 8.730469 C 1.453125 8.765625 1.457031 8.800781 1.460938 8.832031 C 1.476562 8.832031 1.488281 8.828125 1.503906 8.828125 C 1.5 8.792969 1.496094 8.761719 1.496094 8.726562 Z M 8.316406 15.265625 C 8.328125 15.269531 8.335938 15.273438 8.347656 15.273438 C 8.351562 15.242188 8.359375 15.207031 8.363281 15.171875 C 8.351562 15.171875 8.335938 15.171875 8.324219 15.167969 C 8.320312 15.203125 8.320312 15.234375 8.316406 15.265625 Z M 7.941406 4.558594 C 7.929688 4.554688 7.917969 4.550781 7.90625 4.550781 C 7.902344 4.582031 7.890625 4.609375 7.882812 4.644531 C 7.894531 4.644531 7.90625 4.648438 7.914062 4.648438 C 7.921875 4.621094 7.929688 4.589844 7.941406 4.558594 Z M 2.066406 9.996094 C 2.03125 9.976562 2.015625 9.964844 1.996094 9.960938 C 1.988281 9.957031 1.976562 9.980469 1.96875 9.988281 C 1.980469 10 1.996094 10.011719 2.007812 10.015625 C 2.019531 10.019531 2.035156 10.007812 2.066406 9.996094 Z M 11.527344 8.03125 C 11.542969 7.992188 11.550781 7.976562 11.554688 7.957031 C 11.554688 7.949219 11.53125 7.9375 11.519531 7.929688 C 11.511719 7.945312 11.5 7.957031 11.496094 7.972656 C 11.496094 7.988281 11.507812 8 11.527344 8.03125 Z M 9.742188 1.941406 C 9.734375 1.925781 9.726562 1.914062 9.722656 1.90625 C 9.710938 1.914062 9.699219 1.925781 9.695312 1.9375 C 9.691406 1.945312 9.703125 1.957031 9.707031 1.964844 C 9.71875 1.957031 9.730469 1.949219 9.742188 1.941406 Z M 1.664062 9.785156 C 1.683594 9.765625 1.699219 9.753906 1.703125 9.742188 C 1.703125 9.730469 1.691406 9.714844 1.683594 9.699219 C 1.671875 9.707031 1.652344 9.714844 1.648438 9.726562 C 1.644531 9.738281 1.65625 9.757812 1.664062 9.785156 Z M 9.746094 11.007812 C 9.757812 11 9.769531 10.996094 9.78125 10.988281 C 9.765625 10.964844 9.75 10.945312 9.734375 10.925781 C 9.726562 10.929688 9.71875 10.9375 9.707031 10.941406 C 9.722656 10.964844 9.730469 10.984375 9.746094 11.007812 Z M 0.5625 5.097656 C 0.550781 5.089844 0.542969 5.085938 0.527344 5.078125 C 0.519531 5.101562 0.507812 5.125 0.5 5.148438 C 0.5 5.148438 0.523438 5.164062 0.523438 5.164062 C 0.539062 5.140625 0.550781 5.117188 0.5625 5.097656 Z M 7.734375 3.894531 C 7.71875 3.882812 7.707031 3.863281 7.695312 3.867188 C 7.683594 3.867188 7.667969 3.886719 7.667969 3.898438 C 7.664062 3.910156 7.683594 3.921875 7.691406 3.933594 C 7.707031 3.921875 7.71875 3.910156 7.734375 3.894531 Z M 12.097656 7.042969 C 12.089844 7.046875 12.078125 7.050781 12.070312 7.054688 C 12.078125 7.078125 12.085938 7.105469 12.09375 7.132812 C 12.105469 7.132812 12.117188 7.128906 12.125 7.125 C 12.117188 7.09375 12.109375 7.070312 12.097656 7.042969 Z M 10.171875 13.109375 C 10.160156 13.105469 10.152344 13.105469 10.144531 13.101562 C 10.136719 13.109375 10.125 13.121094 10.128906 13.128906 C 10.128906 13.144531 10.140625 13.15625 10.148438 13.167969 C 10.152344 13.148438 10.164062 13.128906 10.171875 13.109375 Z M 0.746094 6.832031 C 0.757812 6.835938 0.769531 6.839844 0.777344 6.84375 C 0.789062 6.8125 0.796875 6.785156 0.804688 6.753906 C 0.796875 6.75 0.785156 6.746094 0.777344 6.746094 C 0.765625 6.773438 0.757812 6.800781 0.746094 6.832031 Z M 3.730469 11.828125 C 3.746094 11.824219 3.753906 11.820312 3.765625 11.816406 C 3.757812 11.804688 3.75 11.789062 3.742188 11.777344 C 3.738281 11.773438 3.722656 11.78125 3.710938 11.785156 C 3.71875 11.800781 3.722656 11.8125 3.730469 11.828125 Z M 2.90625 11.492188 C 2.898438 11.492188 2.894531 11.492188 2.886719 11.492188 C 2.886719 11.523438 2.886719 11.558594 2.886719 11.589844 C 2.894531 11.589844 2.898438 11.589844 2.90625 11.589844 C 2.90625 11.558594 2.90625 11.523438 2.90625 11.492188 Z M 8.359375 3.339844 C 8.347656 3.335938 8.339844 3.335938 8.328125 3.335938 C 8.324219 3.355469 8.320312 3.378906 8.316406 3.402344 C 8.320312 3.402344 8.328125 3.40625 8.332031 3.40625 C 8.34375 3.382812 8.351562 3.359375 8.359375 3.339844 Z M 1.027344 8.769531 C 1.015625 8.765625 1.003906 8.765625 0.992188 8.765625 C 0.992188 8.792969 0.992188 8.820312 0.992188 8.847656 C 1.003906 8.847656 1.007812 8.847656 1.019531 8.847656 C 1.019531 8.820312 1.023438 8.796875 1.027344 8.769531 Z M 1.59375 9.574219 C 1.601562 9.570312 1.613281 9.566406 1.625 9.5625 C 1.613281 9.539062 1.605469 9.519531 1.59375 9.496094 C 1.589844 9.5 1.582031 9.5 1.578125 9.5 C 1.582031 9.523438 1.589844 9.550781 1.59375 9.574219 Z M 1.59375 9.574219" fill="#fffdfc"/></g><path fill-rule="nonzero" fill-opacity="1" d="M 3.707031 13.332031 L 3.707031 13.339844 C 3.742188 13.296875 3.78125 13.25 3.816406 13.210938 L 3.808594 13.207031 C 3.839844 13.238281 3.863281 13.273438 3.898438 13.296875 C 3.972656 13.34375 4.039062 13.304688 4.070312 13.207031 L 4.066406 13.214844 C 4.132812 13.171875 4.183594 13.1875 4.210938 13.257812 C 4.230469 13.316406 4.195312 13.351562 4.136719 13.355469 C 4.039062 13.363281 4.039062 13.441406 4.019531 13.507812 L 4.027344 13.503906 C 4.011719 13.554688 4 13.601562 3.980469 13.660156 C 3.953125 13.621094 3.925781 13.582031 3.894531 13.539062 C 3.855469 13.546875 3.816406 13.554688 3.753906 13.566406 C 3.738281 13.484375 3.722656 13.410156 3.707031 13.332031 Z M 3.707031 13.332031" fill="#fffdfc"/><path fill-rule="nonzero" fill-opacity="1" d="M 4.140625 13.71875 C 4.191406 13.722656 4.246094 13.71875 4.289062 13.734375 C 4.34375 13.753906 4.386719 13.796875 4.441406 13.828125 C 4.457031 13.800781 4.472656 13.785156 4.484375 13.765625 C 4.535156 13.808594 4.585938 13.851562 4.636719 13.898438 C 4.621094 13.933594 4.609375 13.976562 4.585938 14.007812 C 4.5625 14.042969 4.523438 14.089844 4.488281 14.089844 C 4.453125 14.089844 4.402344 14.050781 4.386719 14.015625 C 4.289062 13.839844 4.289062 13.832031 4.128906 13.78125 C 4.132812 13.757812 4.136719 13.734375 4.144531 13.714844 Z M 4.140625 13.71875" fill="#fffdfc"/><path fill-rule="nonzero" fill-opacity="1" d="M 3.035156 9.890625 C 3.007812 9.878906 2.960938 9.878906 2.945312 9.859375 C 2.898438 9.785156 2.855469 9.703125 2.820312 9.621094 C 2.742188 9.4375 2.667969 9.246094 2.597656 9.058594 C 2.585938 9.03125 2.601562 8.996094 2.609375 8.925781 C 2.761719 9.269531 2.894531 9.582031 3.03125 9.894531 Z M 3.035156 9.890625" fill="#fffdfc"/><path fill-rule="nonzero" fill-opacity="1" d="M 10.769531 9.335938 C 10.554688 9.207031 10.464844 9.34375 10.371094 9.476562 C 10.390625 9.332031 10.453125 9.21875 10.554688 9.121094 C 10.628906 9.050781 10.695312 9.039062 10.769531 9.101562 C 10.769531 9.171875 10.769531 9.234375 10.769531 9.335938 Z M 10.769531 9.335938" fill="#fffdfc"/><path fill-rule="nonzero" fill-opacity="1" d="M 8.066406 14.066406 C 8.058594 14.074219 8.050781 14.082031 8.042969 14.089844 C 8 14.113281 7.960938 14.140625 7.917969 14.15625 C 7.863281 14.179688 7.796875 14.207031 7.757812 14.144531 C 7.71875 14.082031 7.730469 14.019531 7.804688 13.964844 C 7.851562 13.988281 7.90625 14.011719 7.960938 14.039062 C 7.988281 13.980469 8.019531 13.925781 8.054688 13.851562 C 8.128906 13.941406 8.117188 14.003906 8.066406 14.066406 Z M 8.066406 14.066406" fill="#fffdfc"/><path fill-rule="nonzero" fill-opacity="1" d="M 0.46875 9.015625 C 0.410156 8.847656 0.351562 8.679688 0.363281 8.496094 C 0.4375 8.660156 0.496094 8.828125 0.46875 9.015625 Z M 0.46875 9.015625" fill="#fffdfc"/><path fill-rule="nonzero" fill-opacity="1" d="M 5.476562 13.488281 C 5.371094 13.542969 5.285156 13.585938 5.210938 13.625 C 5.214844 13.519531 5.28125 13.40625 5.363281 13.402344 C 5.421875 13.402344 5.488281 13.417969 5.476562 13.488281 Z M 5.476562 13.488281" fill="#fffdfc"/><path fill-rule="nonzero" fill-opacity="1" d="M 4.625 13.699219 C 4.539062 13.617188 4.445312 13.539062 4.328125 13.429688 C 4.550781 13.46875 4.597656 13.507812 4.625 13.699219 Z M 4.625 13.699219" fill="#fffdfc"/><path fill-rule="nonzero" fill-opacity="1" d="M 0.300781 8.128906 C 0.269531 8.011719 0.175781 7.890625 0.300781 7.742188 C 0.300781 7.894531 0.300781 8.011719 0.300781 8.128906 Z M 0.300781 8.128906" fill="#fffdfc"/><path fill-rule="nonzero" fill-opacity="1" d="M 5.378906 13.667969 C 5.441406 13.742188 5.480469 13.796875 5.527344 13.851562 C 5.375 13.882812 5.324219 13.835938 5.378906 13.667969 Z M 5.378906 13.667969" fill="#fffdfc"/><path fill-rule="nonzero" fill-opacity="1" d="M 4.949219 13.871094 C 4.851562 13.828125 4.78125 13.792969 4.707031 13.761719 C 4.710938 13.75 4.71875 13.738281 4.722656 13.726562 C 4.800781 13.753906 4.914062 13.699219 4.949219 13.871094 Z M 4.949219 13.871094" fill="#fffdfc"/><path fill-rule="nonzero" fill-opacity="1" d="M 4.019531 13.507812 C 4.058594 13.507812 4.097656 13.507812 4.140625 13.507812 C 4.140625 13.585938 4.140625 13.652344 4.140625 13.71875 L 4.144531 13.714844 C 4.066406 13.71875 4.015625 13.699219 4.039062 13.601562 C 4.046875 13.574219 4.03125 13.535156 4.027344 13.503906 Z M 4.019531 13.507812" fill="#fffdfc"/><path fill-rule="nonzero" fill-opacity="1" d="M 0.375 3.832031 C 0.347656 3.898438 0.320312 3.96875 0.292969 4.03125 C 0.28125 4.027344 0.265625 4.023438 0.253906 4.015625 C 0.273438 3.949219 0.296875 3.878906 0.320312 3.8125 C 0.339844 3.820312 0.355469 3.828125 0.375 3.832031 Z M 0.375 3.832031" fill="#fffdfc"/><path fill-rule="nonzero" fill-opacity="1" d="M 5.75 13.644531 C 5.617188 13.699219 5.601562 13.636719 5.578125 13.519531 C 5.648438 13.570312 5.691406 13.597656 5.75 13.644531 Z M 5.75 13.644531" fill="#fffdfc"/><path fill-rule="nonzero" fill-opacity="1" d="M 10.632812 9.507812 C 10.582031 9.507812 10.53125 9.507812 10.46875 9.507812 C 10.574219 9.394531 10.578125 9.394531 10.625 9.515625 Z M 10.632812 9.507812" fill="#fffdfc"/><path fill-rule="nonzero" fill-opacity="1" d="M 1.707031 11.320312 C 1.683594 11.28125 1.664062 11.242188 1.636719 11.199219 C 1.667969 11.1875 1.6875 11.179688 1.6875 11.179688 C 1.707031 11.222656 1.722656 11.261719 1.738281 11.300781 C 1.726562 11.308594 1.71875 11.3125 1.707031 11.320312 Z M 1.707031 11.320312" fill="#fffdfc"/><path fill-rule="nonzero" fill-opacity="1" d="M 0.234375 4.175781 C 0.21875 4.242188 0.203125 4.304688 0.191406 4.371094 C 0.179688 4.371094 0.171875 4.367188 0.160156 4.367188 C 0.171875 4.296875 0.179688 4.234375 0.195312 4.164062 C 0.207031 4.167969 0.21875 4.171875 0.234375 4.175781 Z M 0.234375 4.175781" fill="#fffdfc"/><path fill-rule="nonzero" fill-opacity="1" d="M 3.035156 9.894531 C 3.050781 9.964844 3.066406 10.03125 3.085938 10.101562 C 3.070312 10.101562 3.050781 10.105469 3.035156 10.109375 C 3.035156 10.035156 3.035156 9.964844 3.035156 9.890625 C 3.035156 9.890625 3.035156 9.894531 3.035156 9.894531 Z M 3.035156 9.894531" fill="#fffdfc"/><path fill-rule="nonzero" fill-opacity="1" d="M 8.074219 2.320312 C 8.105469 2.289062 8.132812 2.257812 8.164062 2.226562 C 8.175781 2.234375 8.1875 2.242188 8.195312 2.253906 C 8.167969 2.285156 8.140625 2.320312 8.113281 2.355469 C 8.097656 2.34375 8.085938 2.332031 8.074219 2.320312 Z M 8.074219 2.320312" fill="#fffdfc"/><path fill-rule="nonzero" fill-opacity="1" d="M 0.792969 9.480469 C 0.804688 9.523438 0.816406 9.570312 0.828125 9.613281 C 0.816406 9.617188 0.800781 9.617188 0.789062 9.621094 C 0.777344 9.578125 0.765625 9.53125 0.753906 9.488281 C 0.765625 9.484375 0.777344 9.480469 0.792969 9.480469 Z M 0.792969 9.480469" fill="#fffdfc"/><path fill-rule="nonzero" fill-opacity="1" d="M 11.492188 7.40625 C 11.484375 7.476562 11.449219 7.519531 11.355469 7.5625 C 11.394531 7.476562 11.417969 7.417969 11.5 7.414062 Z M 11.492188 7.40625" fill="#fffdfc"/><path fill-rule="nonzero" fill-opacity="1" d="M 5.085938 13.636719 C 5.054688 13.613281 5.023438 13.585938 4.96875 13.542969 C 5.0625 13.535156 5.113281 13.535156 5.085938 13.636719 Z M 5.085938 13.636719" fill="#fffdfc"/><path fill-rule="nonzero" fill-opacity="1" d="M 5.066406 14.304688 C 5.046875 14.320312 5.03125 14.34375 5.011719 14.355469 C 4.996094 14.359375 4.96875 14.347656 4.945312 14.316406 C 4.980469 14.304688 5.015625 14.292969 5.046875 14.277344 C 5.054688 14.289062 5.058594 14.296875 5.066406 14.304688 Z M 5.066406 14.304688" fill="#fffdfc"/><path fill-rule="nonzero" fill-opacity="1" d="M 0.0195312 6.410156 C 0.0195312 6.375 0.0273438 6.335938 0.03125 6.296875 C 0.0390625 6.296875 0.046875 6.296875 0.0585938 6.292969 C 0.0585938 6.316406 0.0664062 6.335938 0.0664062 6.355469 C 0.0625 6.378906 0.0507812 6.398438 0.0429688 6.417969 C 0.0351562 6.414062 0.0273438 6.414062 0.0195312 6.410156 Z M 0.0195312 6.410156" fill="#fffdfc"/><path fill-rule="nonzero" fill-opacity="1" d="M 0.640625 9.125 C 0.628906 9.09375 0.621094 9.058594 0.613281 9.027344 C 0.621094 9.023438 0.632812 9.023438 0.640625 9.019531 C 0.648438 9.054688 0.652344 9.089844 0.660156 9.121094 C 0.652344 9.121094 0.644531 9.125 0.640625 9.125 Z M 0.640625 9.125" fill="#fffdfc"/><path fill-rule="nonzero" fill-opacity="1" d="M 0.863281 10.144531 C 0.871094 10.136719 0.878906 10.132812 0.886719 10.125 C 0.890625 10.136719 0.898438 10.148438 0.902344 10.164062 C 0.894531 10.167969 0.882812 10.175781 0.875 10.171875 C 0.867188 10.167969 0.867188 10.15625 0.863281 10.144531 Z M 0.863281 10.144531" fill="#fffdfc"/><path fill-rule="nonzero" fill-opacity="1" d="M 5.328125 14.523438 C 5.320312 14.539062 5.3125 14.550781 5.308594 14.558594 C 5.296875 14.550781 5.28125 14.539062 5.273438 14.527344 C 5.273438 14.523438 5.289062 14.503906 5.289062 14.503906 C 5.304688 14.507812 5.316406 14.515625 5.328125 14.523438 Z M 5.328125 14.523438" fill="#fffdfc"/><g clip-path="url(#88c503492f)"><path fill-rule="nonzero" fill-opacity="1" d="M 9.648438 30.246094 C 4.871094 30.246094 0.964844 26.335938 0.964844 21.5625 C 0.964844 16.785156 4.871094 12.878906 9.648438 12.878906 C 14.425781 12.878906 18.332031 16.785156 18.332031 21.5625 C 18.332031 26.335938 14.425781 30.246094 9.648438 30.246094 Z M 9.648438 30.246094" fill="#ddaba0"/></g><g clip-path="url(#e971f1bdf6)"><path fill-rule="nonzero" fill-opacity="1" d="M 6.375 24.847656 C 5.273438 24.941406 3.316406 25.847656 3.316406 25.847656 C 3.316406 25.847656 5.351562 25.246094 6.425781 25.210938 C 8.488281 25.144531 10.464844 26.144531 12.523438 26.046875 C 13.683594 25.988281 15.847656 25.246094 15.847656 25.246094 C 15.847656 25.246094 13.632812 25.703125 12.5 25.699219 C 10.425781 25.695312 8.4375 24.671875 6.375 24.847656 Z M 6.375 24.847656" fill="#fffdfc"/></g><g clip-path="url(#f516092caf)"><path fill-rule="nonzero" fill-opacity="1" d="M 13.929688 19.683594 L 16.652344 21.730469 L 13.929688 19.359375 L 13.789062 19.375 L 11.917969 17.847656 L 10.851562 17.847656 L 9.808594 16.96875 L 8.152344 16.96875 L 2.640625 21.390625 L 4.296875 21.390625 L 9.808594 17.246094 L 12.882812 19.699219 L 10.976562 21.449219 L 11.925781 21.449219 L 13.421875 20.128906 L 16.199219 22.347656 L 13.492188 20.066406 Z M 13.167969 19.441406 L 12.964844 19.625 L 11.472656 18.371094 L 11.894531 18.066406 L 13.667969 19.386719 Z M 13.167969 19.441406" fill="#fffdfc"/></g><path fill-rule="nonzero" fill-opacity="1" d="M 8.925781 19.421875 L 9.730469 19.421875 L 9.730469 20.277344 L 8.925781 20.277344 Z M 8.925781 19.421875" fill="#fffdfc"/><path fill-rule="nonzero" fill-opacity="1" d="M 9.898438 19.421875 L 10.703125 19.421875 L 10.703125 20.277344 L 9.898438 20.277344 Z M 9.898438 19.421875" fill="#fffdfc"/><path fill-rule="nonzero" fill-opacity="1" d="M 8.925781 20.417969 L 9.730469 20.417969 L 9.730469 21.277344 L 8.925781 21.277344 Z M 8.925781 20.417969" fill="#fffdfc"/><path fill-rule="nonzero" fill-opacity="1" d="M 9.902344 20.414062 L 10.707031 20.414062 L 10.707031 21.273438 L 9.902344 21.273438 Z M 9.902344 20.414062" fill="#fffdfc"/><g fill-opacity="1" fill="#4b4a49"><g transform="translate(19.812238, 24.307899)"><g><path d="M 1.6875 -2.953125 L 1.6875 0 L 0.8125 0 L 0.8125 -5.96875 L 1.6875 -5.96875 L 1.6875 -3.296875 L 4.421875 -3.296875 L 4.421875 -5.96875 L 5.296875 -5.96875 L 5.296875 0 L 4.421875 0 L 4.421875 -2.953125 Z M 1.6875 -2.953125"/></g></g></g><g fill-opacity="1" fill="#4b4a49"><g transform="translate(25.9187, 24.307899)"><g><path d="M 3.53125 -6.078125 C 4.3125 -6.078125 4.957031 -5.816406 5.46875 -5.296875 C 5.976562 -4.785156 6.234375 -4.078125 6.234375 -3.171875 C 6.234375 -2.578125 6.128906 -2.054688 5.921875 -1.609375 C 5.710938 -1.171875 5.445312 -0.832031 5.125 -0.59375 C 4.476562 -0.125 3.765625 0.109375 2.984375 0.109375 C 2.210938 0.109375 1.570312 -0.148438 1.0625 -0.671875 C 0.5625 -1.191406 0.3125 -1.910156 0.3125 -2.828125 C 0.3125 -3.296875 0.378906 -3.71875 0.515625 -4.09375 C 0.648438 -4.476562 0.828125 -4.789062 1.046875 -5.03125 C 1.265625 -5.28125 1.515625 -5.484375 1.796875 -5.640625 C 2.328125 -5.929688 2.90625 -6.078125 3.53125 -6.078125 Z M 1.71875 -1.03125 C 1.875 -0.757812 2.082031 -0.550781 2.34375 -0.40625 C 2.601562 -0.257812 2.90625 -0.1875 3.25 -0.1875 C 3.601562 -0.1875 3.914062 -0.273438 4.1875 -0.453125 C 4.457031 -0.628906 4.664062 -0.859375 4.8125 -1.140625 C 5.125 -1.703125 5.28125 -2.304688 5.28125 -2.953125 C 5.28125 -3.753906 5.117188 -4.398438 4.796875 -4.890625 C 4.441406 -5.429688 3.851562 -5.703125 3.03125 -5.703125 C 2.445312 -5.503906 2.003906 -5.15625 1.703125 -4.65625 C 1.410156 -4.15625 1.265625 -3.585938 1.265625 -2.953125 C 1.265625 -2.179688 1.414062 -1.539062 1.71875 -1.03125 Z M 1.71875 -1.03125"/></g></g></g><g fill-opacity="1" fill="#4b4a49"><g transform="translate(32.458118, 24.307899)"><g><path d="M 4 -1.421875 L 5.984375 -5.96875 L 6.90625 -5.96875 L 7.234375 0 L 6.3125 0 L 6.078125 -5.125 L 6.046875 -5.125 L 3.765625 0 L 3.640625 0 L 1.421875 -4.921875 L 1.375 -4.921875 L 1.140625 0 L 0.734375 0 L 1.078125 -5.96875 L 1.90625 -5.96875 Z M 4 -1.421875"/></g></g></g><g fill-opacity="1" fill="#4b4a49"><g transform="translate(40.476799, 24.307899)"><g><path d="M 0.8125 0 L 0.8125 -5.96875 L 4.421875 -5.96875 L 4.34375 -5.359375 L 2.65625 -5.640625 C 2.363281 -5.640625 2.039062 -5.585938 1.6875 -5.484375 L 1.6875 -3.296875 L 3.6875 -3.296875 L 3.6875 -2.953125 L 1.6875 -2.953125 L 1.6875 -0.328125 L 4.484375 -0.609375 L 4.390625 0 Z M 0.8125 0"/></g></g></g><g fill-opacity="1" fill="#4b4a49"><g transform="translate(45.545973, 24.307899)"><g><path d="M 5.34375 0.09375 L 5.1875 0.09375 L 1.25 -4.84375 L 1.203125 -4.84375 L 1.203125 0 L 0.8125 0 L 0.8125 -5.96875 L 1.484375 -5.96875 L 4.90625 -1.625 L 4.953125 -1.625 L 4.953125 -5.96875 L 5.34375 -5.96875 Z M 5.34375 0.09375"/></g></g></g><g fill-opacity="1" fill="#4b4a49"><g transform="translate(51.706555, 24.307899)"><g><path d="M 0.8125 0 L 0.8125 -5.96875 L 4.421875 -5.96875 L 4.34375 -5.359375 L 2.65625 -5.640625 C 2.363281 -5.640625 2.039062 -5.585938 1.6875 -5.484375 L 1.6875 -3.296875 L 3.6875 -3.296875 L 3.6875 -2.953125 L 1.6875 -2.953125 L 1.6875 -0.328125 L 4.484375 -0.609375 L 4.390625 0 Z M 0.8125 0"/></g></g></g><g fill-opacity="1" fill="#4b4a49"><g transform="translate(56.77573, 24.307899)"><g><path d="M 1.453125 -4.9375 C 1.453125 -4.664062 1.554688 -4.414062 1.765625 -4.1875 C 1.972656 -3.96875 2.222656 -3.769531 2.515625 -3.59375 C 2.816406 -3.425781 3.113281 -3.253906 3.40625 -3.078125 C 3.707031 -2.898438 3.960938 -2.679688 4.171875 -2.421875 C 4.378906 -2.160156 4.484375 -1.875 4.484375 -1.5625 C 4.484375 -1.070312 4.300781 -0.671875 3.9375 -0.359375 C 3.570312 -0.046875 3.078125 0.109375 2.453125 0.109375 C 1.835938 0.109375 1.226562 -0.0078125 0.625 -0.25 L 0.625 -0.671875 C 1.238281 -0.359375 1.757812 -0.203125 2.1875 -0.203125 C 2.613281 -0.203125 2.945312 -0.304688 3.1875 -0.515625 C 3.425781 -0.734375 3.546875 -1.023438 3.546875 -1.390625 C 3.546875 -1.648438 3.445312 -1.878906 3.25 -2.078125 C 3.050781 -2.285156 2.8125 -2.46875 2.53125 -2.625 C 2.25 -2.78125 1.96875 -2.9375 1.6875 -3.09375 C 1.40625 -3.257812 1.164062 -3.46875 0.96875 -3.71875 C 0.769531 -3.96875 0.671875 -4.269531 0.671875 -4.625 C 0.671875 -4.976562 0.828125 -5.304688 1.140625 -5.609375 C 1.453125 -5.921875 1.921875 -6.078125 2.546875 -6.078125 C 2.960938 -6.078125 3.484375 -5.984375 4.109375 -5.796875 L 4.015625 -5.1875 C 3.203125 -5.53125 2.503906 -5.703125 1.921875 -5.703125 C 1.609375 -5.554688 1.453125 -5.300781 1.453125 -4.9375 Z M 1.453125 -4.9375"/></g></g></g><g fill-opacity="1" fill="#4b4a49"><g transform="translate(61.790788, 24.307899)"><g><path d="M 2.84375 0 L 1.96875 0 L 1.96875 -5.53125 C 1.769531 -5.582031 1.566406 -5.609375 1.359375 -5.609375 L 0.140625 -5.328125 L 0.09375 -5.96875 L 4.734375 -5.96875 L 4.6875 -5.328125 L 3.46875 -5.609375 C 3.257812 -5.609375 3.050781 -5.582031 2.84375 -5.53125 Z M 2.84375 0"/></g></g></g></svg>